<svg xmlns="http://www.w3.org/2000/svg" viewBox="0 0 1221.48 150"><defs><style>.cls-1{fill:#ffe9d3;}.cls-2{fill:#00807c;}</style></defs><g id="bg"><rect class="cls-1" width="1224" height="2761.51"/></g><g id="Layer_3" data-name="Layer 3"><path class="cls-2" d="M276.67,51.18A5.2,5.2,0,0,1,282,56.34v2.52a5.35,5.35,0,0,1-5.34,5.34h-1.62a5.35,5.35,0,0,1-5.34-5.34V56.34a5.2,5.2,0,0,1,5.34-5.16Zm14.94,42H275A5.4,5.4,0,0,1,269.77,89c2.58.78,3.66-4.56,3.66-8,0-8.52,6.3-7.8,6.3-1.2,0,7.62,5,12.24,11.88,12.24ZM272.35,69.72A4.32,4.32,0,1,1,276.67,74,4.3,4.3,0,0,1,272.35,69.72ZM281.59,51c16,0,24.36,2.16,24.36,42.18h-13c0-18.36-.24-41.88-12.42-41.34Zm15,0c16,0,24.36,2.16,24.36,42.18H308.71c0-18.36-1-41.88-13.2-41.34Z"/><path class="cls-2" d="M359.89,85.08v2.76a5.35,5.35,0,0,1-5.34,5.34H326.89a5.35,5.35,0,0,1-5.34-5.34V85.08c2.64,1,3.78-.54,3.78-4,0-8.52,6.3-7.8,6.3-1.2,0,8.1,4.08,12.6,9.12,12.6s9.06-4.5,9.06-12.6c0-6.6,6.3-7.32,6.3,1.2C356.11,84.54,357.25,86.1,359.89,85.08ZM324,58.86V56.34a5.2,5.2,0,0,1,5.34-5.16h22.8a5.2,5.2,0,0,1,5.34,5.16v2.52a5.35,5.35,0,0,1-5.34,5.34h-22.8A5.35,5.35,0,0,1,324,58.86Zm4.62,6.54a4.29,4.29,0,1,1-4.32,4.32A4.3,4.3,0,0,1,328.57,65.4Zm24.3,0a4.29,4.29,0,1,1-4.32,4.32A4.3,4.3,0,0,1,352.87,65.4Z"/><path class="cls-2" d="M396.73,52.14V61c0,24.9-36.24,47.16-36.24,22.86V81.06c2.22,3,3.78,2.7,3.78-.78,0-8.52,6.3-7.8,6.3-1.2,0,32.57,45.48-21.6,11.1-26.94-1.08-.18,0-1,1.14-1h12.84A1,1,0,0,1,396.73,52.14Zm-16,4.2v2.52a5.35,5.35,0,0,1-5.34,5.34h-9.54a5.35,5.35,0,0,1-5.34-5.34V56.34a5.2,5.2,0,0,1,5.34-5.16h9.54A5.2,5.2,0,0,1,380.71,56.34ZM363.19,69.18a4.32,4.32,0,1,1,4.32,4.26A4.3,4.3,0,0,1,363.19,69.18Z"/><path class="cls-2" d="M433.27,56.34v2.52a5.35,5.35,0,0,1-5.34,5.34H402.67a5.35,5.35,0,0,1-5.34-5.34V56.34a5.2,5.2,0,0,1,5.34-5.16h25.26A5.2,5.2,0,0,1,433.27,56.34Zm0,20.82V87.84a5.35,5.35,0,0,1-5.34,5.34H402.67a5.35,5.35,0,0,1-5.34-5.34V85.08c2.64,1,3.78-.54,3.78-4,0-8.52,6.3-7.8,6.3-1.2,0,15.84,21.36,14.52,24.42,7.5,3.3-7.56-6.18-7.86-12.48-10.5-1.44-.6-2.16-1.62,0-1.62h11.88A2,2,0,0,1,433.27,77.16Zm-5-9.06v1.62c0,1.86-2,3.36-4.44,3.36H402.67c-2.46,0-4.5-1.5-4.5-3.36V68.1c0-1.8,2-3.24,4.5-3.24h21.18C426.31,64.86,428.29,66.3,428.29,68.1Z"/><path class="cls-2" d="M499.81,56.34v2.52a5.35,5.35,0,0,1-5.34,5.34H475.21a5.35,5.35,0,0,1-5.34-5.34V56.34a5.2,5.2,0,0,1,5.34-5.16h19.26A5.2,5.2,0,0,1,499.81,56.34Zm-8,28.68v8.16l-5.34-.06H486a.89.89,0,0,1-.42.06h-2.52l-5.34.06V85.08c2.64,1,3.78-.54,3.78-4a11.31,11.31,0,0,1,.48-3.48c1.2-4.44,6-4,6,3.42C488,84.48,489.13,86,491.77,85ZM480.49,69.6a4.32,4.32,0,1,1,4.32,4.26A4.3,4.3,0,0,1,480.49,69.6Z"/><path class="cls-2" d="M500.41,58.86V56.34a5.2,5.2,0,0,1,5.34-5.16h1.92A5.2,5.2,0,0,1,513,56.34v2.52a5.35,5.35,0,0,1-5.34,5.34h-1.92A5.35,5.35,0,0,1,500.41,58.86Zm14,29,.12,5.34H500.41v-8.1c2.64,1,3.78-.54,3.78-4,0-4.32,1.62-6.3,3.24-6.3s3.24,2,3.24,6.3c0,3.48,1.14,5,3.78,4Zm-2.7-18.12a4.32,4.32,0,1,1-4.32-4.32A4.29,4.29,0,0,1,511.75,69.72Zm7.26,4.5h-1.74c-2.46,0-4.5-1.5-4.5-3.36V69.24c0-1.8,2-3.24,4.5-3.24H519c2.46,0,4.44,1.44,4.44,3.24v1.62C523.45,72.72,521.47,74.22,519,74.22Zm16.62,18.9h-5.88a.89.89,0,0,1-.42.06h-7.86v-8.1c2.64,1,3.78-.54,3.78-4a11.31,11.31,0,0,1,.48-3.48c1.2-4.44,6-4,6,3.42,0,3.48,1.14,5,3.78,4v2.76Zm0-36.78v2.52a5.35,5.35,0,0,1-5.34,5.34h-1.92A5.35,5.35,0,0,1,523,58.86V56.34a5.2,5.2,0,0,1,5.34-5.16h1.92A5.2,5.2,0,0,1,535.63,56.34ZM524.29,69.72A4.32,4.32,0,1,1,528.61,74,4.3,4.3,0,0,1,524.29,69.72Z"/><path class="cls-2" d="M572.35,56.34v2.52A5.35,5.35,0,0,1,567,64.2H541.75a5.35,5.35,0,0,1-5.34-5.34V56.34a5.2,5.2,0,0,1,5.34-5.16H567A5.2,5.2,0,0,1,572.35,56.34Zm0,20.82V87.84A5.35,5.35,0,0,1,567,93.18H541.75a5.35,5.35,0,0,1-5.34-5.34V85.08c2.64,1,3.78-.54,3.78-4,0-8.52,6.3-7.8,6.3-1.2,0,15.84,21.36,14.52,24.42,7.5,3.3-7.56-6.18-7.86-12.48-10.5-1.44-.6-2.16-1.62,0-1.62h11.88A2,2,0,0,1,572.35,77.16Zm-5-9.06v1.62c0,1.86-2,3.36-4.44,3.36H541.75c-2.46,0-4.5-1.5-4.5-3.36V68.1c0-1.8,2-3.24,4.5-3.24h21.18C565.39,64.86,567.37,66.3,567.37,68.1Z"/><path class="cls-2" d="M644.94,76.14v11.7a5.35,5.35,0,0,1-5.33,5.34H614.29A5.35,5.35,0,0,1,609,87.84V77.64a2,2,0,0,1,2-1.92h11.88c2.16,0,1.44,1,0,1.62-6.3,2.64-15.78,2.46-12.48,10,2.4,5.4,21.54,9.6,21.54-4.08V76.14a5.2,5.2,0,0,1,5.16-5.34h2.52A5.35,5.35,0,0,1,644.94,76.14Zm.66-19.62V67.2a2,2,0,0,1-2,1.92H631.69c-2.16,0-1.44-1,0-1.62,6.3-2.64,15.77-2.94,12.48-10.5-3.07-7-24.42-6.24-24.42,9.24,0,6.6-6.3,7.32-6.3-1.2,0-3.48-1.14-5.1-3.78-4.08V56.52A5.35,5.35,0,0,1,615,51.18h25.25A5.35,5.35,0,0,1,645.6,56.52ZM624.79,74.58a4.29,4.29,0,1,1,4.32-4.26A4.29,4.29,0,0,1,624.79,74.58Z"/><path class="cls-2" d="M681.18,52.14V64.32c0,28.86.3,28.86-2.39,28.86H651.25a5.35,5.35,0,0,1-5.34-5.34V85.08c2.64,1,3.78-.54,3.78-4,0-8.52,6.3-7.8,6.3-1.2,0,11,7.92,17.76,17.1,7.38,5.45-6.18,8.33-17.52,6.83-24.84C678,53,669.85,53.58,666.13,52.14c-1.08-.36,0-1,1.14-1H680.1A1,1,0,0,1,681.18,52.14Zm-15,4.2v2.52a5.35,5.35,0,0,1-5.34,5.34h-9.54a5.35,5.35,0,0,1-5.34-5.34V56.34a5.2,5.2,0,0,1,5.34-5.16h9.54A5.2,5.2,0,0,1,666.13,56.34ZM648.61,69.72A4.32,4.32,0,1,1,652.93,74,4.3,4.3,0,0,1,648.61,69.72Z"/><path class="cls-2" d="M681.79,67V56.52A5.2,5.2,0,0,1,687,51.18h2.52a5.35,5.35,0,0,1,5.34,5.34V67a5.35,5.35,0,0,1-5.34,5.34H687A5.2,5.2,0,0,1,681.79,67Zm35.93,8.82v12a5.35,5.35,0,0,1-5.34,5.34H687.13a5.35,5.35,0,0,1-5.34-5.34V85.08c2.64,1,3.78-.54,3.78-4,0-8.52,6.3-7.8,6.3-1.2,0,15.84,21.35,14.52,24.42,7.5,3.3-7.56-6.49-10.08-12.48-11.82-1.44-.42-2.16-1.62,0-1.62h11.87A2,2,0,0,1,717.72,75.84ZM692.65,51.66l.66-.42c8.88,0,19.86-.36,20.45,5.46a52.21,52.21,0,0,1,.3,5.58,40.52,40.52,0,0,1-.3,5.64c-.72,5.28-13.49,5.4-22.37,5.4l-.66-.42c4.68.3,11.88.54,13.31-4.44.37-1.26.25-3.9.25-6.18a60.3,60.3,0,0,0-.25-6.12C703.57,51.18,697.33,51.42,692.65,51.66Z"/><path class="cls-2" d="M754.33,76.14v11.7A5.36,5.36,0,0,1,749,93.18H723.67a5.35,5.35,0,0,1-5.34-5.34V77.64a2,2,0,0,1,2-1.92h11.88c2.16,0,1.44,1,0,1.62-6.3,2.64-15.78,2.46-12.48,10,2.4,5.4,21.54,9.6,21.54-4.08V76.14a5.2,5.2,0,0,1,5.15-5.34H749A5.36,5.36,0,0,1,754.33,76.14ZM755,56.52V67.2a2,2,0,0,1-2,1.92H741.07c-2.16,0-1.44-1,0-1.62,6.3-2.64,15.77-2.94,12.47-10.5-3-7-24.41-6.24-24.41,9.24,0,6.6-6.3,7.32-6.3-1.2,0-3.48-1.14-5.1-3.78-4.08V56.52a5.35,5.35,0,0,1,5.34-5.34h25.25A5.35,5.35,0,0,1,755,56.52ZM734.17,74.58a4.29,4.29,0,1,1,4.32-4.26A4.29,4.29,0,0,1,734.17,74.58Z"/><path class="cls-2" d="M785.22,56.34v2.52a5.35,5.35,0,0,1-5.34,5.34H760.63a5.35,5.35,0,0,1-5.34-5.34V56.34a5.2,5.2,0,0,1,5.34-5.16h19.25A5.19,5.19,0,0,1,785.22,56.34Zm-8,28.68v8.16l-5.34-.06h-.42a.89.89,0,0,1-.42.06h-2.52l-5.34.06V85.08c2.64,1,3.78-.54,3.78-4a11.31,11.31,0,0,1,.48-3.48c1.2-4.44,6-4,6,3.42C773.41,84.48,774.54,86,777.19,85ZM765.91,69.6a4.32,4.32,0,1,1,4.32,4.26A4.3,4.3,0,0,1,765.91,69.6Z"/><path class="cls-2" d="M798.84,93.18h-13c0-23.4,7-24.12,23-24.12l1.08.84C797.71,69.36,798.84,74.82,798.84,93.18Zm23.22-36.84v2.52a5.35,5.35,0,0,1-5.34,5.34H791.46a5.35,5.35,0,0,1-5.33-5.34V56.34a5.2,5.2,0,0,1,5.33-5.16h25.26A5.2,5.2,0,0,1,822.06,56.34ZM812,79.86c0-6.6,6.3-7.32,6.3,1.2,0,3.42,1.08,8.76,3.66,8a5.4,5.4,0,0,1-5.22,4.14H800.17V92.1C807,92.1,812,87.48,812,79.86Zm-1.26-10.14A4.32,4.32,0,1,1,815.1,74,4.3,4.3,0,0,1,810.78,69.72Z"/><path class="cls-2" d="M852.66,56.34v2.52a5.35,5.35,0,0,1-5.34,5.34H828.06a5.35,5.35,0,0,1-5.34-5.34V56.34a5.2,5.2,0,0,1,5.34-5.16h19.26A5.2,5.2,0,0,1,852.66,56.34Zm-8,28.68v8.16l-5.34-.06h-.42a.89.89,0,0,1-.42.06h-2.52l-5.34.06V85.08c2.64,1,3.78-.54,3.78-4a11.31,11.31,0,0,1,.48-3.48c1.2-4.44,6-4,6,3.42C840.84,84.48,842,86,844.62,85ZM833.34,69.6a4.32,4.32,0,1,1,4.32,4.26A4.3,4.3,0,0,1,833.34,69.6Z"/><path class="cls-2" d="M867.3,85v8.16h-14v-8.1c2.64,1,3.78-.54,3.78-4a11.31,11.31,0,0,1,.48-3.48c1.2-4.44,6-4,6,3.42C863.52,84.48,864.66,86,867.3,85ZM854,68.58V66.06a5.2,5.2,0,0,1,5.34-5.16h1.92a5.2,5.2,0,0,1,5.34,5.16v2.52a5.35,5.35,0,0,1-5.34,5.34h-1.92A5.35,5.35,0,0,1,854,68.58Zm2.1-13.08a4.32,4.32,0,1,1,4.32,4.26A4.3,4.3,0,0,1,856.08,55.5Z"/><path class="cls-2" d="M906.24,85.08v2.76a5.35,5.35,0,0,1-5.34,5.34H873.24a5.35,5.35,0,0,1-5.34-5.34V85.08c2.64,1,3.78-.54,3.78-4,0-8.52,6.3-7.8,6.3-1.2,0,8.1,4.08,12.6,9.12,12.6s9.06-4.5,9.06-12.6c0-6.6,6.3-7.32,6.3,1.2C902.46,84.54,903.6,86.1,906.24,85.08ZM870.3,58.86V56.34a5.2,5.2,0,0,1,5.34-5.16h22.8a5.2,5.2,0,0,1,5.34,5.16v2.52a5.35,5.35,0,0,1-5.34,5.34h-22.8A5.35,5.35,0,0,1,870.3,58.86Zm4.62,6.54a4.29,4.29,0,1,1-4.32,4.32A4.3,4.3,0,0,1,874.92,65.4Zm24.3,0a4.29,4.29,0,1,1-4.32,4.32A4.3,4.3,0,0,1,899.22,65.4Z"/><path class="cls-2" d="M913.8,51.18a5.2,5.2,0,0,1,5.34,5.16v2.52a5.35,5.35,0,0,1-5.34,5.34h-1.62a5.35,5.35,0,0,1-5.34-5.34V56.34a5.2,5.2,0,0,1,5.34-5.16Zm14.94,42H912.12A5.4,5.4,0,0,1,906.9,89c2.58.78,3.66-4.56,3.66-8,0-8.52,6.3-7.8,6.3-1.2,0,7.62,5,12.24,11.88,12.24ZM909.48,69.72A4.32,4.32,0,1,1,913.8,74,4.3,4.3,0,0,1,909.48,69.72ZM918.72,51c16,0,24.36,2.16,24.36,42.18h-13c0-18.36-.24-41.88-12.42-41.34Z"/><path class="cls-2" d="M947,90.12a3.52,3.52,0,0,1,3.54-3.72,3.72,3.72,0,0,1,0,7.44A3.52,3.52,0,0,1,947,90.12Zm1.5-8.58-.84-28.8h5.76l-.84,28.8Z"/></g></svg>